<?xml version="1.0" encoding="UTF-8" standalone="no"?>
<svg
   viewBox="0 0 512 512"
   version="1.1"
   id="svg1"
   sodipodi:docname="backward-fast_dark.svg"
   inkscape:version="1.4 (1:1.4+202410161351+e7c3feb100)"
   xmlns:inkscape="http://www.inkscape.org/namespaces/inkscape"
   xmlns:sodipodi="http://sodipodi.sourceforge.net/DTD/sodipodi-0.dtd"
   xmlns="http://www.w3.org/2000/svg"
   xmlns:svg="http://www.w3.org/2000/svg">
  <defs
     id="defs1" />
  <sodipodi:namedview
     id="namedview1"
     pagecolor="#ffffff"
     bordercolor="#666666"
     borderopacity="1.0"
     inkscape:showpageshadow="2"
     inkscape:pageopacity="0.0"
     inkscape:pagecheckerboard="0"
     inkscape:deskcolor="#d1d1d1"
     inkscape:zoom="3.9238281"
     inkscape:cx="256.12743"
     inkscape:cy="256"
     inkscape:window-width="2160"
     inkscape:window-height="3749"
     inkscape:window-x="3840"
     inkscape:window-y="0"
     inkscape:window-maximized="1"
     inkscape:current-layer="svg1" />
  <!--! Font Awesome Free 6.5.1 by @fontawesome - https://fontawesome.com License - https://fontawesome.com/license/free (Icons: CC BY 4.0, Fonts: SIL OFL 1.1, Code: MIT License) Copyright 2023 Fonticons, Inc. -->
  <path
     d="M493.6 445c-11.2 5.3-24.5 3.6-34.1-4.4L288 297.7V416c0 12.4-7.2 23.7-18.4 29s-24.5 3.6-34.1-4.4L64 297.7V416c0 17.7-14.3 32-32 32s-32-14.3-32-32V96C0 78.3 14.3 64 32 64s32 14.3 32 32V214.3L235.5 71.4c9.5-7.9 22.8-9.7 34.1-4.4S288 83.6 288 96V214.3L459.5 71.4c9.5-7.9 22.8-9.7 34.1-4.4S512 83.6 512 96V416c0 12.4-7.2 23.7-18.4 29z"
     id="path1"
     style="fill:#ffffff;fill-opacity:1" />
</svg>
