<?xml version="1.0" encoding="UTF-8" standalone="no"?>
<svg
   viewBox="0 0 512 512"
   version="1.1"
   id="svg4"
   sodipodi:docname="circle-pause.svg"
   inkscape:version="1.1.2 (0a00cf5339, 2022-02-04)"
   xmlns:inkscape="http://www.inkscape.org/namespaces/inkscape"
   xmlns:sodipodi="http://sodipodi.sourceforge.net/DTD/sodipodi-0.dtd"
   xmlns="http://www.w3.org/2000/svg"
   xmlns:svg="http://www.w3.org/2000/svg">
  <defs
     id="defs8" />
  <sodipodi:namedview
     id="namedview6"
     pagecolor="#ffffff"
     bordercolor="#666666"
     borderopacity="1.0"
     inkscape:pageshadow="2"
     inkscape:pageopacity="0.0"
     inkscape:pagecheckerboard="0"
     showgrid="false"
     inkscape:zoom="2.6445312"
     inkscape:cx="252.78582"
     inkscape:cy="255.81093"
     inkscape:window-width="2831"
     inkscape:window-height="1604"
     inkscape:window-x="545"
     inkscape:window-y="238"
     inkscape:window-maximized="0"
     inkscape:current-layer="svg4" />
  <!--! Font Awesome Free 6.5.1 by @fontawesome - https://fontawesome.com License - https://fontawesome.com/license/free (Icons: CC BY 4.0, Fonts: SIL OFL 1.1, Code: MIT License) Copyright 2023 Fonticons, Inc. -->
  <path
     d="m 0,256 a 256,256 0 1 0 512,0 256,256 0 1 0 -512,0 z M 320,224 H 192 c -17.7,0 -32,-14.3 -32,-32 0,-17.7 14.3,-32 32,-32 h 128 c 17.7,0 32,14.3 32,32 0,17.7 -14.3,32 -32,32 z m 0,128 H 192 c -17.7,0 -32,-14.3 -32,-32 0,-17.7 14.3,-32 32,-32 h 128 c 17.7,0 32,14.3 32,32 0,17.7 -14.3,32 -32,32 z"
     id="path2" />
</svg>
