<?xml version="1.0" encoding="UTF-8" standalone="no"?>
<svg
   viewBox="0 0 512 512"
   version="1.1"
   id="svg1"
   sodipodi:docname="filmdark.svg"
   inkscape:version="1.4 (1:1.4+202410161351+e7c3feb100)"
   xmlns:inkscape="http://www.inkscape.org/namespaces/inkscape"
   xmlns:sodipodi="http://sodipodi.sourceforge.net/DTD/sodipodi-0.dtd"
   xmlns="http://www.w3.org/2000/svg"
   xmlns:svg="http://www.w3.org/2000/svg">
  <defs
     id="defs1" />
  <sodipodi:namedview
     id="namedview1"
     pagecolor="#ffffff"
     bordercolor="#666666"
     borderopacity="1.0"
     inkscape:showpageshadow="2"
     inkscape:pageopacity="0.0"
     inkscape:pagecheckerboard="0"
     inkscape:deskcolor="#d1d1d1"
     inkscape:zoom="3.9238281"
     inkscape:cx="256.12743"
     inkscape:cy="256"
     inkscape:window-width="2160"
     inkscape:window-height="3749"
     inkscape:window-x="3840"
     inkscape:window-y="0"
     inkscape:window-maximized="1"
     inkscape:current-layer="svg1" />
  <!--! Font Awesome Free 6.5.1 by @fontawesome - https://fontawesome.com License - https://fontawesome.com/license/free (Icons: CC BY 4.0, Fonts: SIL OFL 1.1, Code: MIT License) Copyright 2023 Fonticons, Inc. -->
  <path
     d="M0 96C0 60.7 28.7 32 64 32H448c35.3 0 64 28.7 64 64V416c0 35.3-28.7 64-64 64H64c-35.3 0-64-28.7-64-64V96zM48 368v32c0 8.8 7.2 16 16 16H96c8.8 0 16-7.2 16-16V368c0-8.8-7.2-16-16-16H64c-8.8 0-16 7.2-16 16zm368-16c-8.8 0-16 7.2-16 16v32c0 8.8 7.2 16 16 16h32c8.8 0 16-7.2 16-16V368c0-8.8-7.2-16-16-16H416zM48 240v32c0 8.8 7.2 16 16 16H96c8.8 0 16-7.2 16-16V240c0-8.8-7.2-16-16-16H64c-8.8 0-16 7.2-16 16zm368-16c-8.8 0-16 7.2-16 16v32c0 8.8 7.2 16 16 16h32c8.8 0 16-7.2 16-16V240c0-8.8-7.2-16-16-16H416zM48 112v32c0 8.8 7.2 16 16 16H96c8.8 0 16-7.2 16-16V112c0-8.8-7.2-16-16-16H64c-8.8 0-16 7.2-16 16zM416 96c-8.8 0-16 7.2-16 16v32c0 8.8 7.2 16 16 16h32c8.8 0 16-7.2 16-16V112c0-8.8-7.2-16-16-16H416zM160 128v64c0 17.7 14.3 32 32 32H320c17.7 0 32-14.3 32-32V128c0-17.7-14.3-32-32-32H192c-17.7 0-32 14.3-32 32zm32 160c-17.7 0-32 14.3-32 32v64c0 17.7 14.3 32 32 32H320c17.7 0 32-14.3 32-32V320c0-17.7-14.3-32-32-32H192z"
     id="path1"
     style="fill:#ffffff;fill-opacity:1" />
</svg>
