<?xml version="1.0" encoding="UTF-8" standalone="no"?>
<svg
   viewBox="0 0 320 512"
   version="1.1"
   id="svg1"
   sodipodi:docname="pause_dark.svg"
   inkscape:version="1.4 (1:1.4+202410161351+e7c3feb100)"
   xmlns:inkscape="http://www.inkscape.org/namespaces/inkscape"
   xmlns:sodipodi="http://sodipodi.sourceforge.net/DTD/sodipodi-0.dtd"
   xmlns="http://www.w3.org/2000/svg"
   xmlns:svg="http://www.w3.org/2000/svg">
  <defs
     id="defs1" />
  <sodipodi:namedview
     id="namedview1"
     pagecolor="#ffffff"
     bordercolor="#666666"
     borderopacity="1.0"
     inkscape:showpageshadow="2"
     inkscape:pageopacity="0.0"
     inkscape:pagecheckerboard="0"
     inkscape:deskcolor="#d1d1d1"
     inkscape:zoom="6.278125"
     inkscape:cx="160.07964"
     inkscape:cy="256.04778"
     inkscape:window-width="2160"
     inkscape:window-height="3749"
     inkscape:window-x="3840"
     inkscape:window-y="0"
     inkscape:window-maximized="1"
     inkscape:current-layer="svg1" />
  <!--! Font Awesome Free 6.5.1 by @fontawesome - https://fontawesome.com License - https://fontawesome.com/license/free (Icons: CC BY 4.0, Fonts: SIL OFL 1.1, Code: MIT License) Copyright 2023 Fonticons, Inc. -->
  <path
     d="M48 64C21.5 64 0 85.5 0 112V400c0 26.5 21.5 48 48 48H80c26.5 0 48-21.5 48-48V112c0-26.5-21.5-48-48-48H48zm192 0c-26.5 0-48 21.5-48 48V400c0 26.5 21.5 48 48 48h32c26.5 0 48-21.5 48-48V112c0-26.5-21.5-48-48-48H240z"
     id="path1"
     style="fill:#ffffff;fill-opacity:1" />
</svg>
